<?xml version="1.0" encoding="UTF-8"?>
<!DOCTYPE svg PUBLIC "-//W3C//DTD SVG 1.1//EN" "http://www.w3.org/Graphics/SVG/1.1/DTD/svg11.dtd">
<!-- Creator: CorelDRAW -->
<svg xmlns="http://www.w3.org/2000/svg" xml:space="preserve" width="100mm" height="100mm" version="1.1" style="shape-rendering:geometricPrecision; text-rendering:geometricPrecision; image-rendering:optimizeQuality; fill-rule:evenodd; clip-rule:evenodd"
viewBox="0 0 10000 10000"
 xmlns:xlink="http://www.w3.org/1999/xlink"
 xmlns:xodm="http://www.corel.com/coreldraw/odm/2003">
 <defs>
  <style type="text/css">
   <![CDATA[
    .str0 {stroke:#373435;stroke-width:20;stroke-miterlimit:22.9256}
    .fil1 {fill:none}
    .fil0 {fill:#D2D3D5}
   ]]>
  </style>
   <clipPath id="id0">
    <path d="M4996.2 149.62c2680.89,0 4854.18,2173.29 4854.18,4854.18 0,2680.88 -2173.29,4854.17 -4854.18,4854.17 -2680.88,0 -4854.17,-2173.29 -4854.17,-4854.17 0,-2680.89 2173.29,-4854.18 4854.17,-4854.18z"/>
   </clipPath>
    <clipPath id="id1">
     <path d="M7560.03 881.57c1375.06,857.04 2290.35,2382.63 2290.35,4122.23 0,2680.88 -2173.29,4854.17 -4854.18,4854.17 -1545.95,0 -2923.03,-722.77 -3811.98,-1848.75l0 -6010.85c347.73,-440.36 770.19,-818.9 1248.15,-1116.8l5127.66 0z"/>
    </clipPath>
    <clipPath id="id2">
     <path d="M4996.2 149.62c2680.89,0 4854.18,2173.29 4854.18,4854.18 0,2680.88 -2173.29,4854.17 -4854.18,4854.17 -2680.88,0 -4854.17,-2173.29 -4854.17,-4854.17 0,-2680.89 2173.29,-4854.18 4854.17,-4854.18z"/>
    </clipPath>
 </defs>
 <g id="Capa_x0020_1">
  <metadata id="CorelCorpID_0Corel-Layer"/>
  <path class="fil0" d="M4996.2 149.62c2680.89,0 4854.18,2173.29 4854.18,4854.18 0,2680.88 -2173.29,4854.17 -4854.18,4854.17 -2680.88,0 -4854.17,-2173.29 -4854.17,-4854.17 0,-2680.89 2173.29,-4854.18 4854.17,-4854.18z"/>
  <g style="clip-path:url(#id0)">
   <g id="_1487206777280">
   </g>
   <g style="clip-path:url(#id1)">
    <image id="foto-documento.png" x="1184.22" y="881.58" width="9176.37" height="9221.87" xlink:href="mi-foto_Images\mi-foto_ImgID1.png"/>
   </g>
   <g style="clip-path:url(#id2)">
   </g>
  </g>
  <path class="fil1 str0" d="M4996.2 149.62c2680.89,0 4854.18,2173.29 4854.18,4854.18 0,2680.88 -2173.29,4854.17 -4854.18,4854.17 -2680.88,0 -4854.17,-2173.29 -4854.17,-4854.17 0,-2680.89 2173.29,-4854.18 4854.17,-4854.18z"/>
 </g>
</svg>
